<svg xmlns="http://www.w3.org/2000/svg" viewBox="0 0 48 48"><path fill="#ffb74d" d="M36,13c2.205,0,4-1.795,4-4c0-2.205-1.795-4-4-4s-4,1.795-4,4C32,11.205,33.795,13,36,13"/><path fill="#546e7a" d="M4.675 32.313H25.888V34.313H4.675z" transform="rotate(-45.001 15.281 33.313)"/><path fill="#1976d2" d="M22,28c-0.508,0-1.015-0.191-1.404-0.576c-0.787-0.776-0.795-2.042-0.02-2.828l9.25-9.375 c0.776-0.789,2.042-0.796,2.828-0.02c0.787,0.776,0.795,2.042,0.02,2.828l-9.25,9.375C23.032,27.802,22.517,28,22,28z"/><path fill="#dd2c00" d="M14.975,29.025C14.291,28.342,13.396,28,12.5,28c-0.896,0-1.791,0.342-2.475,1.025 c-0.764,0.764-4.232,4.232-5,5C4.343,34.707,4.001,35.6,4,36.494c-0.001,0.898,0.34,1.796,1.025,2.481C6.392,40.342,8,42,8,42l10-10 C18,32,15.401,29.451,14.975,29.025z"/><path fill="#546e7a" d="M9 39A2 2 0 1 0 9 43A2 2 0 1 0 9 39Z"/><path fill="#1976d2" d="M34.86 21.88L32.91 28.32 31.39 26.47 33.43 19.72z"/><path fill="#1976d2" d="M27.743,27l-1.599,6.218l-3.88,6.79c-0.548,0.959-0.215,2.181,0.744,2.729 C23.32,42.915,23.662,43,23.998,43c0.694,0,1.369-0.361,1.738-1.008l4-7c0.08-0.14,0.143-0.288,0.187-0.442L32.077,27H27.743z"/><path fill="#2196f3" d="M42.89,23.21l-3.52-1.76l-3.928-5.865c-0.434-0.661-1.08-1.188-1.895-1.435 c-0.335-0.101-0.673-0.149-1.006-0.15c-1.508-0.005-2.9,0.97-3.36,2.484l-3.031,10c-0.38,1.255-0.005,2.544,0.838,3.431 c1.387,1.459,6.112,4.944,6.112,4.944l0.92,6.42c0.14,1,1,1.72,1.98,1.72c0.09,0,0.19-0.01,0.28-0.02 c1.005-0.146,1.725-1.002,1.72-1.98c0-0.092-0.006-0.186-0.02-0.28l-1-7c-0.05-0.38-0.21-0.73-0.46-1.02l-3.61-4.382l1.951-6.438 l1.469,2.22c0.2,0.3,0.46,0.53,0.78,0.69l4,2C41.39,26.93,41.7,27,42,27c0.73,0,1.44-0.4,1.79-1.11 C44.28,24.91,43.88,23.71,42.89,23.21z"/></svg>